{
  "accessors": [
    {
      "bufferView": 2,
      "componentType": 5126,
      "count": 65532,
      "max": [
        2.4681100845336914,
        2.9980828762054443,
        4.019440174102783
      ],
      "min": [
        -0.8861043453216553,
        -1.3092180490493774,
        -3.0671892166137695
      ],
      "type": "VEC3"
    },
    {
      "bufferView": 2,
      "byteOffset": 786384,
      "componentType": 5126,
      "count": 65532,
      "max": [
        0.9999933242797852,
        0.9999871253967285,
        0.9999850988388062
      ],
      "min": [
        -0.9999894499778748,
        -0.999984622001648,
        -0.9999731779098511
      ],
      "type": "VEC3"
    },
    {
      "bufferView": 3,
      "componentType": 5126,
      "count": 65532,
      "max": [
        0.9999541640281677,
        0.999993622303009,
        0.9998930096626282,
        1.0
      ],
      "min": [
        -0.9999849796295166,
        -0.9999530911445618,
        -0.9999617338180542,
        -1.0
      ],
      "type": "VEC4"
    },
    {
      "bufferView": 1,
      "componentType": 5126,
      "count": 65532,
      "max": [
        0.9871377348899841,
        0.9832624197006226
      ],
      "min": [
        0.02339082956314087,
        0.012205839157104492
      ],
      "type": "VEC2"
    },
    {
      "bufferView": 0,
      "componentType": 5125,
      "count": 362808,
      "type": "SCALAR"
    },
    {
      "bufferView": 2,
      "byteOffset": 1572768,
      "componentType": 5126,
      "count": 65532,
      "max": [
        3.5970165729522705,
        2.971534490585327,
        3.789926767349243
      ],
      "min": [
        -0.8104613423347473,
        -2.267057180404663,
        -3.5294313430786133
      ],
      "type": "VEC3"
    },
    {
      "bufferView": 2,
      "byteOffset": 2359152,
      "componentType": 5126,
      "count": 65532,
      "max": [
        0.9999814629554749,
        0.9999871253967285,
        0.9999392032623291
      ],
      "min": [
        -0.9999396800994873,
        -0.9999552965164185,
        -0.9998722076416016
      ],
      "type": "VEC3"
    },
    {
      "bufferView": 3,
      "byteOffset": 1048512,
      "componentType": 5126,
      "count": 65532,
      "max": [
        0.999923825263977,
        0.9999683499336243,
        0.9998930096626282,
        1.0
      ],
      "min": [
        -0.9999949336051941,
        -0.999943733215332,
        -0.9998772144317627,
        -1.0
      ],
      "type": "VEC4"
    },
    {
      "bufferView": 1,
      "byteOffset": 524256,
      "componentType": 5126,
      "count": 65532,
      "max": [
        0.985052227973938,
        0.9649636745452881
      ],
      "min": [
        0.011518239974975586,
        0.012975990772247314
      ],
      "type": "VEC2"
    },
    {
      "bufferView": 0,
      "byteOffset": 1451232,
      "componentType": 5125,
      "count": 367752,
      "type": "SCALAR"
    },
    {
      "bufferView": 2,
      "byteOffset": 3145536,
      "componentType": 5126,
      "count": 65532,
      "max": [
        3.5938987731933594,
        2.8860511779785156,
        3.994398593902588
      ],
      "min": [
        -2.212656021118164,
        -2.262934923171997,
        -3.5303666591644287
      ],
      "type": "VEC3"
    },
    {
      "bufferView": 2,
      "byteOffset": 3931920,
      "componentType": 5126,
      "count": 65532,
      "max": [
        0.9999110102653503,
        0.9998641014099121,
        0.9999626874923706
      ],
      "min": [
        -0.9999814629554749,
        -0.999977171421051,
        -0.9998837113380432
      ],
      "type": "VEC3"
    },
    {
      "bufferView": 3,
      "byteOffset": 2097024,
      "componentType": 5126,
      "count": 65532,
      "max": [
        0.9999827146530151,
        0.9999403357505798,
        0.9999416470527649,
        1.0
      ],
      "min": [
        -0.999652624130249,
        -0.9999529123306274,
        -0.9997192621231079,
        -1.0
      ],
      "type": "VEC4"
    },
    {
      "bufferView": 1,
      "byteOffset": 1048512,
      "componentType": 5126,
      "count": 65532,
      "max": [
        0.9874128103256226,
        0.9821023344993591
      ],
      "min": [
        0.012199819087982178,
        0.016231000423431396
      ],
      "type": "VEC2"
    },
    {
      "bufferView": 0,
      "byteOffset": 2922240,
      "componentType": 5125,
      "count": 357990,
      "type": "SCALAR"
    },
    {
      "bufferView": 2,
      "byteOffset": 4718304,
      "componentType": 5126,
      "count": 26176,
      "max": [
        3.512234687805176,
        2.9515531063079834,
        3.9965834617614746
      ],
      "min": [
        -2.1946237087249756,
        -2.1042885780334473,
        -3.525386333465576
      ],
      "type": "VEC3"
    },
    {
      "bufferView": 2,
      "byteOffset": 5032416,
      "componentType": 5126,
      "count": 26176,
      "max": [
        0.9996271729469299,
        0.9999873042106628,
        0.9984813928604126
      ],
      "min": [
        -0.99979567527771,
        -0.9999552965164185,
        -0.9993947744369507
      ],
      "type": "VEC3"
    },
    {
      "bufferView": 3,
      "byteOffset": 3145536,
      "componentType": 5126,
      "count": 26176,
      "max": [
        0.9989418983459473,
        0.9999181628227234,
        0.9997552037239075,
        1.0
      ],
      "min": [
        -0.9998897314071655,
        -0.9992319345474243,
        -0.9989631772041321,
        -1.0
      ],
      "type": "VEC4"
    },
    {
      "bufferView": 1,
      "byteOffset": 1572768,
      "componentType": 5126,
      "count": 26176,
      "max": [
        0.9844321012496948,
        0.9822752475738525
      ],
      "min": [
        0.035809993743896484,
        0.012205839157104492
      ],
      "type": "VEC2"
    },
    {
      "bufferView": 0,
      "byteOffset": 4354200,
      "componentType": 5125,
      "count": 133338,
      "type": "SCALAR"
    }
  ],
  "asset": {
    "extras": {
      "author": "GenEugene (https://sketchfab.com/geneugene)",
      "license": "CC-BY-4.0 (http://creativecommons.org/licenses/by/4.0/)",
      "source": "https://sketchfab.com/3d-models/shiny-fish-e0bddbcafc5e48c097b40b4bada3811a",
      "title": "Shiny Fish"
    },
    "generator": "Sketchfab-12.67.0",
    "version": "2.0"
  },
  "bufferViews": [
    {
      "buffer": 0,
      "byteLength": 4887552,
      "name": "floatBufferViews",
      "target": 34963
    },
    {
      "buffer": 0,
      "byteLength": 1782176,
      "byteOffset": 4887552,
      "byteStride": 8,
      "name": "floatBufferViews",
      "target": 34962
    },
    {
      "buffer": 0,
      "byteLength": 5346528,
      "byteOffset": 6669728,
      "byteStride": 12,
      "name": "floatBufferViews",
      "target": 34962
    },
    {
      "buffer": 0,
      "byteLength": 3564352,
      "byteOffset": 12016256,
      "byteStride": 16,
      "name": "floatBufferViews",
      "target": 34962
    }
  ],
  "buffers": [
    {
      "byteLength": 15580608,
      "uri": "scene.bin"
    }
  ],
  "images": [
    {
      "uri": "textures/G_Fish_tex_baseColor.jpeg"
    },
    {
      "uri": "textures/G_Fish_tex_metallicRoughness.png"
    },
    {
      "uri": "textures/G_Fish_tex_emissive.jpeg"
    },
    {
      "uri": "textures/G_Fish_tex_normal.png"
    }
  ],
  "materials": [
    {
      "emissiveFactor": [
        1.0,
        1.0,
        1.0
      ],
      "emissiveTexture": {
        "index": 2
      },
      "name": "G_Fish_tex",
      "normalTexture": {
        "index": 3
      },
      "occlusionTexture": {
        "index": 1
      },
      "pbrMetallicRoughness": {
        "baseColorTexture": {
          "index": 0
        },
        "metallicRoughnessTexture": {
          "index": 1
        }
      }
    }
  ],
  "meshes": [
    {
      "name": "G_Fish67_G_Fish_tex_0",
      "primitives": [
        {
          "attributes": {
            "NORMAL": 1,
            "POSITION": 0,
            "TANGENT": 2,
            "TEXCOORD_0": 3
          },
          "indices": 4,
          "material": 0,
          "mode": 4
        }
      ]
    },
    {
      "name": "G_Fish67_G_Fish_tex_0",
      "primitives": [
        {
          "attributes": {
            "NORMAL": 6,
            "POSITION": 5,
            "TANGENT": 7,
            "TEXCOORD_0": 8
          },
          "indices": 9,
          "material": 0,
          "mode": 4
        }
      ]
    },
    {
      "name": "G_Fish67_G_Fish_tex_0",
      "primitives": [
        {
          "attributes": {
            "NORMAL": 11,
            "POSITION": 10,
            "TANGENT": 12,
            "TEXCOORD_0": 13
          },
          "indices": 14,
          "material": 0,
          "mode": 4
        }
      ]
    },
    {
      "name": "G_Fish67_G_Fish_tex_0",
      "primitives": [
        {
          "attributes": {
            "NORMAL": 16,
            "POSITION": 15,
            "TANGENT": 17,
            "TEXCOORD_0": 18
          },
          "indices": 19,
          "material": 0,
          "mode": 4
        }
      ]
    }
  ],
  "nodes": [
    {
      "children": [
        1
      ],
      "matrix": [
        0.9878488779067993,
        -0.11150311678647998,
        0.10826648026704785,
        0.0,
        0.12014371901750565,
        0.10596682876348518,
        -0.9870848655700684,
        0.0,
        0.09859038889408112,
        0.9880982041358948,
        0.11807561665773414,
        0.0,
        0.09226011484861374,
        1.2295373678207397,
        0.49613276124000577,
        1.0
      ],
      "name": "Sketchfab_model"
    },
    {
      "children": [
        2
      ],
      "matrix": [
        1.0,
        0.0,
        0.0,
        0.0,
        0.0,
        0.0,
        1.0,
        0.0,
        0.0,
        -1.0,
        0.0,
        0.0,
        0.0,
        0.0,
        0.0,
        1.0
      ],
      "name": "ad70c2a0d0154d158f0f902219c18686.fbx"
    },
    {
      "children": [
        3
      ],
      "name": "RootNode"
    },
    {
      "children": [
        4,
        5,
        6,
        7
      ],
      "name": "G_Fish67"
    },
    {
      "mesh": 0,
      "name": "G_Fish67_G_Fish_tex_0"
    },
    {
      "mesh": 1,
      "name": "G_Fish67_G_Fish_tex_0"
    },
    {
      "mesh": 2,
      "name": "G_Fish67_G_Fish_tex_0"
    },
    {
      "mesh": 3,
      "name": "G_Fish67_G_Fish_tex_0"
    }
  ],
  "samplers": [
    {
      "magFilter": 9729,
      "minFilter": 9987,
      "wrapS": 10497,
      "wrapT": 10497
    }
  ],
  "scene": 0,
  "scenes": [
    {
      "name": "Sketchfab_Scene",
      "nodes": [
        0
      ]
    }
  ],
  "textures": [
    {
      "sampler": 0,
      "source": 0
    },
    {
      "sampler": 0,
      "source": 1
    },
    {
      "sampler": 0,
      "source": 2
    },
    {
      "sampler": 0,
      "source": 3
    }
  ]
}
