{
  "accessors": [
    {
      "bufferView": 2,
      "componentType": 5126,
      "count": 65534,
      "max": [
        46.067501068115234,
        53.18840026855469,
        6.637320041656494
      ],
      "min": [
        -47.765201568603516,
        -47.44499969482422,
        0.49657800793647766
      ],
      "type": "VEC3"
    },
    {
      "bufferView": 2,
      "byteOffset": 786408,
      "componentType": 5126,
      "count": 65534,
      "max": [
        0.9996662139892578,
        0.9990893006324768,
        0.9999980330467224
      ],
      "min": [
        -0.9998146295547485,
        -0.9998902678489685,
        -0.9999998211860657
      ],
      "type": "VEC3"
    },
    {
      "bufferView": 1,
      "componentType": 5126,
      "count": 65534,
      "max": [
        1.0,
        1.0
      ],
      "min": [
        -1.6713299189063946e-08,
        -1.0919100290607275e-08
      ],
      "type": "VEC2"
    },
    {
      "bufferView": 0,
      "componentType": 5125,
      "count": 329778,
      "type": "SCALAR"
    },
    {
      "bufferView": 2,
      "byteOffset": 1572816,
      "componentType": 5126,
      "count": 16126,
      "max": [
        45.8572998046875,
        52.89139938354492,
        6.301000118255615
      ],
      "min": [
        -7.393660068511963,
        -45.487098693847656,
        1.0733599662780762
      ],
      "type": "VEC3"
    },
    {
      "bufferView": 2,
      "byteOffset": 1766328,
      "componentType": 5126,
      "count": 16126,
      "max": [
        0.9999769330024719,
        0.9995387196540833,
        0.999991238117218
      ],
      "min": [
        -0.9999954104423523,
        -0.9993012547492981,
        -0.999963104724884
      ],
      "type": "VEC3"
    },
    {
      "bufferView": 1,
      "byteOffset": 524272,
      "componentType": 5126,
      "count": 16126,
      "max": [
        0.9977830052375793,
        0.9971330165863037
      ],
      "min": [
        0.4157780110836029,
        0.01949309930205345
      ],
      "type": "VEC2"
    },
    {
      "bufferView": 0,
      "byteOffset": 1319112,
      "componentType": 5125,
      "count": 63438,
      "type": "SCALAR"
    },
    {
      "bufferView": 2,
      "byteOffset": 1959840,
      "componentType": 5126,
      "count": 146,
      "max": [
        1.6397299766540527,
        0.9220290184020996,
        18.394899368286133
      ],
      "min": [
        -0.2043289989233017,
        -0.9220290184020996,
        3.1181800365448
      ],
      "type": "VEC3"
    },
    {
      "bufferView": 2,
      "byteOffset": 1961592,
      "componentType": 5126,
      "count": 146,
      "max": [
        0.9238776564598083,
        0.9238795042037964,
        1.0
      ],
      "min": [
        -0.9238797426223755,
        -0.9982538819313049,
        -1.0
      ],
      "type": "VEC3"
    },
    {
      "bufferView": 1,
      "byteOffset": 653280,
      "componentType": 5126,
      "count": 146,
      "max": [
        0.9642639756202698,
        0.8674629926681519
      ],
      "min": [
        0.08131790161132813,
        0.1414410024881363
      ],
      "type": "VEC2"
    },
    {
      "bufferView": 0,
      "byteOffset": 1572864,
      "componentType": 5125,
      "count": 477,
      "type": "SCALAR"
    },
    {
      "bufferView": 2,
      "byteOffset": 1963344,
      "componentType": 5126,
      "count": 147,
      "max": [
        4.000370025634766,
        0.9382629990577698,
        11.21720027923584
      ],
      "min": [
        2.123840093612671,
        -0.9382629990577698,
        3.1257500648498535
      ],
      "type": "VEC3"
    },
    {
      "bufferView": 2,
      "byteOffset": 1965108,
      "componentType": 5126,
      "count": 147,
      "max": [
        1.0,
        1.0,
        1.0
      ],
      "min": [
        -1.0,
        -1.0,
        -1.0
      ],
      "type": "VEC3"
    },
    {
      "bufferView": 1,
      "byteOffset": 654448,
      "componentType": 5126,
      "count": 147,
      "max": [
        0.936303973197937,
        0.7968729734420776
      ],
      "min": [
        0.06292159855365753,
        0.21203100681304932
      ],
      "type": "VEC2"
    },
    {
      "bufferView": 0,
      "byteOffset": 1574772,
      "componentType": 5125,
      "count": 477,
      "type": "SCALAR"
    },
    {
      "bufferView": 2,
      "byteOffset": 1966872,
      "componentType": 5126,
      "count": 155,
      "max": [
        3.2692201137542725,
        -1.1363699436187744,
        9.065600395202637
      ],
      "min": [
        1.3926899433135986,
        -3.012890100479126,
        3.000580072402954
      ],
      "type": "VEC3"
    },
    {
      "bufferView": 2,
      "byteOffset": 1968732,
      "componentType": 5126,
      "count": 155,
      "max": [
        0.9238824844360352,
        1.0,
        1.0
      ],
      "min": [
        -0.9238824248313904,
        -1.0,
        -1.0
      ],
      "type": "VEC3"
    },
    {
      "bufferView": 1,
      "byteOffset": 655624,
      "componentType": 5126,
      "count": 155,
      "max": [
        0.9846000075340271,
        0.878591001033783
      ],
      "min": [
        0.026214100420475006,
        0.1303129941225052
      ],
      "type": "VEC2"
    },
    {
      "bufferView": 0,
      "byteOffset": 1576680,
      "componentType": 5125,
      "count": 477,
      "type": "SCALAR"
    },
    {
      "bufferView": 2,
      "byteOffset": 1970592,
      "componentType": 5126,
      "count": 168,
      "max": [
        2.9186999797821045,
        2.6912600994110107,
        14.833399772644043
      ],
      "min": [
        1.0746500492095947,
        0.8472009897232056,
        3.0251801013946533
      ],
      "type": "VEC3"
    },
    {
      "bufferView": 2,
      "byteOffset": 1972608,
      "componentType": 5126,
      "count": 168,
      "max": [
        1.0,
        0.9238790273666382,
        1.0
      ],
      "min": [
        -1.0,
        -0.9238840937614441,
        -1.0
      ],
      "type": "VEC3"
    },
    {
      "bufferView": 1,
      "byteOffset": 656864,
      "componentType": 5126,
      "count": 168,
      "max": [
        0.9449959993362427,
        0.8039320111274719
      ],
      "min": [
        0.07161349803209305,
        0.20497199892997742
      ],
      "type": "VEC2"
    },
    {
      "bufferView": 0,
      "byteOffset": 1578588,
      "componentType": 5125,
      "count": 477,
      "type": "SCALAR"
    },
    {
      "bufferView": 2,
      "byteOffset": 1974624,
      "componentType": 5126,
      "count": 155,
      "max": [
        0.39178699254989624,
        -0.9550660252571106,
        10.11139965057373
      ],
      "min": [
        -1.4847400188446045,
        -2.831589937210083,
        2.9814200401306152
      ],
      "type": "VEC3"
    },
    {
      "bufferView": 2,
      "byteOffset": 1976484,
      "componentType": 5126,
      "count": 155,
      "max": [
        1.0,
        0.9238784313201904,
        1.0
      ],
      "min": [
        -0.9238824248313904,
        -1.0,
        -1.0
      ],
      "type": "VEC3"
    },
    {
      "bufferView": 1,
      "byteOffset": 658208,
      "componentType": 5126,
      "count": 155,
      "max": [
        0.9803839921951294,
        0.8672360181808472
      ],
      "min": [
        0.01884160004556179,
        0.14166699349880219
      ],
      "type": "VEC2"
    },
    {
      "bufferView": 0,
      "byteOffset": 1580496,
      "componentType": 5125,
      "count": 477,
      "type": "SCALAR"
    },
    {
      "bufferView": 2,
      "byteOffset": 1978344,
      "componentType": 5126,
      "count": 141,
      "max": [
        -0.29493099451065063,
        2.046839952468872,
        11.005499839782715
      ],
      "min": [
        -2.171459913253784,
        0.17030900716781616,
        2.9809300899505615
      ],
      "type": "VEC3"
    },
    {
      "bufferView": 2,
      "byteOffset": 1980036,
      "componentType": 5126,
      "count": 141,
      "max": [
        0.923879861831665,
        0.9238767027854919,
        1.0
      ],
      "min": [
        -1.0,
        -1.0,
        -1.0
      ],
      "type": "VEC3"
    },
    {
      "bufferView": 1,
      "byteOffset": 659448,
      "componentType": 5126,
      "count": 141,
      "max": [
        0.9775850176811218,
        0.8745229840278625
      ],
      "min": [
        0.027434799820184708,
        0.1343819946050644
      ],
      "type": "VEC2"
    },
    {
      "bufferView": 0,
      "byteOffset": 1582404,
      "componentType": 5125,
      "count": 477,
      "type": "SCALAR"
    },
    {
      "bufferView": 2,
      "byteOffset": 1981728,
      "componentType": 5126,
      "count": 65532,
      "max": [
        32.950801849365234,
        5.404419898986816,
        22.90180015563965
      ],
      "min": [
        -9.781590461730957,
        -37.8031005859375,
        4.072649955749512
      ],
      "type": "VEC3"
    },
    {
      "bufferView": 2,
      "byteOffset": 2768112,
      "componentType": 5126,
      "count": 65532,
      "max": [
        1.0,
        1.0,
        1.0
      ],
      "min": [
        -1.0,
        -1.0,
        -1.0
      ],
      "type": "VEC3"
    },
    {
      "bufferView": 1,
      "byteOffset": 660576,
      "componentType": 5126,
      "count": 65532,
      "max": [
        1.0,
        1.0
      ],
      "min": [
        0.0,
        0.0
      ],
      "type": "VEC2"
    },
    {
      "bufferView": 0,
      "byteOffset": 1584312,
      "componentType": 5125,
      "count": 380376,
      "type": "SCALAR"
    },
    {
      "bufferView": 2,
      "byteOffset": 3554496,
      "componentType": 5126,
      "count": 6197,
      "max": [
        4.06850004196167,
        5.032489776611328,
        23.557199478149414
      ],
      "min": [
        -6.428549766540527,
        -0.04199669882655144,
        19.44930076599121
      ],
      "type": "VEC3"
    },
    {
      "bufferView": 2,
      "byteOffset": 3628860,
      "componentType": 5126,
      "count": 6197,
      "max": [
        1.0,
        1.0,
        1.0
      ],
      "min": [
        -1.0,
        -1.0,
        -1.0
      ],
      "type": "VEC3"
    },
    {
      "bufferView": 1,
      "byteOffset": 1184832,
      "componentType": 5126,
      "count": 6197,
      "max": [
        1.0,
        1.0
      ],
      "min": [
        0.0,
        0.0
      ],
      "type": "VEC2"
    },
    {
      "bufferView": 0,
      "byteOffset": 3105816,
      "componentType": 5125,
      "count": 34344,
      "type": "SCALAR"
    }
  ],
  "asset": {
    "extras": {
      "author": "adventurer (https://sketchfab.com/adventurer)",
      "license": "CC-BY-4.0 (http://creativecommons.org/licenses/by/4.0/)",
      "source": "https://sketchfab.com/3d-models/under-the-sea-a9975a3534da41eaae476e2c4918d8d3",
      "title": "Under The Sea"
    },
    "generator": "Sketchfab-13.33.0",
    "version": "2.0"
  },
  "bufferViews": [
    {
      "buffer": 0,
      "byteLength": 3243192,
      "name": "floatBufferViews",
      "target": 34963
    },
    {
      "buffer": 0,
      "byteLength": 1234408,
      "byteOffset": 3243192,
      "byteStride": 8,
      "name": "floatBufferViews",
      "target": 34962
    },
    {
      "buffer": 0,
      "byteLength": 3703224,
      "byteOffset": 4477600,
      "byteStride": 12,
      "name": "floatBufferViews",
      "target": 34962
    }
  ],
  "buffers": [
    {
      "byteLength": 8180824,
      "uri": "e.bin"
    }
  ],
  "extensionsRequired": [
    "KHR_materials_pbrSpecularGlossiness"
  ],
  "extensionsUsed": [
    "KHR_materials_pbrSpecularGlossiness"
  ],
  "images": [
    {
      "uri": "textures/material23_diffuse.jpeg"
    },
    {
      "uri": "textures/material23_specularGlossiness.png"
    },
    {
      "uri": "textures/material25_diffuse.jpeg"
    },
    {
      "uri": "textures/material25_specularGlossiness.png"
    }
  ],
  "materials": [
    {
      "doubleSided": true,
      "extensions": {
        "KHR_materials_pbrSpecularGlossiness": {
          "diffuseFactor": [
            1.0,
            1.0,
            1.0,
            1.0
          ],
          "diffuseTexture": {
            "index": 0
          },
          "glossinessFactor": 0.0,
          "specularFactor": [
            0.0,
            0.0,
            0.0
          ],
          "specularGlossinessTexture": {
            "index": 1
          }
        }
      },
      "name": "material23"
    },
    {
      "doubleSided": true,
      "extensions": {
        "KHR_materials_pbrSpecularGlossiness": {
          "diffuseFactor": [
            1.0,
            1.0,
            1.0,
            1.0
          ],
          "diffuseTexture": {
            "index": 2
          },
          "glossinessFactor": 1.0,
          "specularFactor": [
            0.0,
            0.0,
            0.0
          ],
          "specularGlossinessTexture": {
            "index": 3
          }
        }
      },
      "name": "material25"
    },
    {
      "doubleSided": true,
      "extensions": {
        "KHR_materials_pbrSpecularGlossiness": {
          "diffuseFactor": [
            1.0,
            1.0,
            1.0,
            1.0
          ],
          "diffuseTexture": {
            "index": 2
          },
          "glossinessFactor": 1.0,
          "specularFactor": [
            0.0,
            0.0,
            0.0
          ],
          "specularGlossinessTexture": {
            "index": 3
          }
        }
      },
      "name": "material27"
    },
    {
      "doubleSided": true,
      "extensions": {
        "KHR_materials_pbrSpecularGlossiness": {
          "diffuseFactor": [
            1.0,
            1.0,
            1.0,
            1.0
          ],
          "diffuseTexture": {
            "index": 2
          },
          "glossinessFactor": 1.0,
          "specularFactor": [
            0.0,
            0.0,
            0.0
          ],
          "specularGlossinessTexture": {
            "index": 3
          }
        }
      },
      "name": "material29"
    },
    {
      "doubleSided": true,
      "extensions": {
        "KHR_materials_pbrSpecularGlossiness": {
          "diffuseFactor": [
            1.0,
            1.0,
            1.0,
            1.0
          ],
          "diffuseTexture": {
            "index": 2
          },
          "glossinessFactor": 1.0,
          "specularFactor": [
            0.0,
            0.0,
            0.0
          ],
          "specularGlossinessTexture": {
            "index": 3
          }
        }
      },
      "name": "material31"
    },
    {
      "doubleSided": true,
      "extensions": {
        "KHR_materials_pbrSpecularGlossiness": {
          "diffuseFactor": [
            1.0,
            1.0,
            1.0,
            1.0
          ],
          "diffuseTexture": {
            "index": 2
          },
          "glossinessFactor": 1.0,
          "specularFactor": [
            0.0,
            0.0,
            0.0
          ],
          "specularGlossinessTexture": {
            "index": 3
          }
        }
      },
      "name": "material33"
    },
    {
      "doubleSided": true,
      "extensions": {
        "KHR_materials_pbrSpecularGlossiness": {
          "diffuseFactor": [
            1.0,
            1.0,
            1.0,
            1.0
          ],
          "diffuseTexture": {
            "index": 2
          },
          "glossinessFactor": 1.0,
          "specularFactor": [
            0.0,
            0.0,
            0.0
          ],
          "specularGlossinessTexture": {
            "index": 3
          }
        }
      },
      "name": "material35"
    },
    {
      "alphaMode": "BLEND",
      "doubleSided": true,
      "extensions": {
        "KHR_materials_pbrSpecularGlossiness": {
          "diffuseFactor": [
            0.5259747095,
            0.5259747095,
            0.5259747095,
            0.24077572612642492
          ],
          "glossinessFactor": 1.0,
          "specularFactor": [
            0.6244235248685633,
            0.6244235248685633,
            0.6244235248685633
          ]
        }
      },
      "name": "material43"
    }
  ],
  "meshes": [
    {
      "name": "Object_0",
      "primitives": [
        {
          "attributes": {
            "NORMAL": 1,
            "POSITION": 0,
            "TEXCOORD_0": 2
          },
          "indices": 3,
          "material": 0,
          "mode": 4
        }
      ]
    },
    {
      "name": "Object_1",
      "primitives": [
        {
          "attributes": {
            "NORMAL": 5,
            "POSITION": 4,
            "TEXCOORD_0": 6
          },
          "indices": 7,
          "material": 0,
          "mode": 4
        }
      ]
    },
    {
      "name": "Object_2",
      "primitives": [
        {
          "attributes": {
            "NORMAL": 9,
            "POSITION": 8,
            "TEXCOORD_0": 10
          },
          "indices": 11,
          "material": 1,
          "mode": 4
        }
      ]
    },
    {
      "name": "Object_3",
      "primitives": [
        {
          "attributes": {
            "NORMAL": 13,
            "POSITION": 12,
            "TEXCOORD_0": 14
          },
          "indices": 15,
          "material": 2,
          "mode": 4
        }
      ]
    },
    {
      "name": "Object_4",
      "primitives": [
        {
          "attributes": {
            "NORMAL": 17,
            "POSITION": 16,
            "TEXCOORD_0": 18
          },
          "indices": 19,
          "material": 3,
          "mode": 4
        }
      ]
    },
    {
      "name": "Object_5",
      "primitives": [
        {
          "attributes": {
            "NORMAL": 21,
            "POSITION": 20,
            "TEXCOORD_0": 22
          },
          "indices": 23,
          "material": 4,
          "mode": 4
        }
      ]
    },
    {
      "name": "Object_6",
      "primitives": [
        {
          "attributes": {
            "NORMAL": 25,
            "POSITION": 24,
            "TEXCOORD_0": 26
          },
          "indices": 27,
          "material": 5,
          "mode": 4
        }
      ]
    },
    {
      "name": "Object_7",
      "primitives": [
        {
          "attributes": {
            "NORMAL": 29,
            "POSITION": 28,
            "TEXCOORD_0": 30
          },
          "indices": 31,
          "material": 6,
          "mode": 4
        }
      ]
    },
    {
      "name": "Object_8",
      "primitives": [
        {
          "attributes": {
            "NORMAL": 33,
            "POSITION": 32,
            "TEXCOORD_0": 34
          },
          "indices": 35,
          "material": 7,
          "mode": 4
        }
      ]
    },
    {
      "name": "Object_9",
      "primitives": [
        {
          "attributes": {
            "NORMAL": 37,
            "POSITION": 36,
            "TEXCOORD_0": 38
          },
          "indices": 39,
          "material": 7,
          "mode": 4
        }
      ]
    }
  ],
  "nodes": [
    {
      "children": [
        1
      ],
      "matrix": [
        0.2391277551651001,
        0.0,
        0.0,
        0.0,
        0.0,
        5.3097027922244266e-17,
        -0.2391277551651001,
        0.0,
        0.0,
        0.2391277551651001,
        5.3097027922244266e-17,
        0.0,
        0.0,
        0.0,
        0.0,
        1.0
      ],
      "name": "Sketchfab_model"
    },
    {
      "children": [
        2,
        3,
        4,
        5,
        6,
        7,
        8,
        9,
        10,
        11
      ],
      "name": "under-water.obj.cleaner.materialmerger.gles"
    },
    {
      "mesh": 0,
      "name": "Object_2"
    },
    {
      "mesh": 1,
      "name": "Object_3"
    },
    {
      "mesh": 2,
      "name": "Object_4"
    },
    {
      "mesh": 3,
      "name": "Object_5"
    },
    {
      "mesh": 4,
      "name": "Object_6"
    },
    {
      "mesh": 5,
      "name": "Object_7"
    },
    {
      "mesh": 6,
      "name": "Object_8"
    },
    {
      "mesh": 7,
      "name": "Object_9"
    },
    {
      "mesh": 8,
      "name": "Object_10"
    },
    {
      "mesh": 9,
      "name": "Object_11"
    }
  ],
  "samplers": [
    {
      "magFilter": 9729,
      "minFilter": 9987,
      "wrapS": 10497,
      "wrapT": 10497
    }
  ],
  "scene": 0,
  "scenes": [
    {
      "name": "Sketchfab_Scene",
      "nodes": [
        0
      ]
    }
  ],
  "textures": [
    {
      "sampler": 0,
      "source": 0
    },
    {
      "sampler": 0,
      "source": 1
    },
    {
      "sampler": 0,
      "source": 2
    },
    {
      "sampler": 0,
      "source": 3
    }
  ]
}
